<svg xmlns="http://www.w3.org/2000/svg" viewBox="0 0 64 64">
  <rect width="64" height="64" rx="14" fill="#0f5d49"/>
  <circle cx="47" cy="16" r="5" fill="#d95f43"/>
  <circle cx="18" cy="48" r="4" fill="#2f6f9f"/>
  <path
    d="M25 13h14v10l-4 5 13 21c2 4-1 8-5 8H21c-4 0-7-4-5-8l13-21-4-5V13Z"
    fill="#fff"
  />
  <path d="M23 45h18c2 0 4 2 3 4l-2 3H22l-2-3c-1-2 1-4 3-4Z" fill="#18745b" opacity="0.9"/>
  <path d="M26 36c4-4 10-4 14 0" fill="none" stroke="#d95f43" stroke-width="4" stroke-linecap="round"/>
</svg>
